<!DOCTYPE svg PUBLIC "-//W3C//DTD SVG 1.1//EN" "http://www.w3.org/Graphics/SVG/1.1/DTD/svg11.dtd">
<!-- Uploaded to: SVG Find, www.svgrepo.com, Transformed by: SVG Find Mixer Tools -->
<svg fill="#000000" width="800px" height="800px" version="1.1" viewBox="144 144 512 512" xmlns="http://www.w3.org/2000/svg">
<g id="SVGRepo_bgCarrier" stroke-width="0"/>
<g id="SVGRepo_tracerCarrier" stroke-linecap="round" stroke-linejoin="round"/>
<g id="SVGRepo_iconCarrier"> <g fill-rule="evenodd"> <path d="m337.02 368.51h-136.45c-8.3477 0-16.363 3.3164-22.266 9.2266-5.9023 5.8984-9.2227 13.906-9.2227 22.262v0c0 8.3516 3.3203 16.363 9.2227 22.262 5.9023 5.9062 13.918 9.2266 22.266 9.2266h137.05c5.793 0 10.496-4.7031 10.496-10.496 0-5.7969-4.7031-10.496-10.496-10.496h-137.05c-2.7812 0-5.457-1.1055-7.418-3.0781-1.9727-1.9609-3.0781-4.6367-3.0781-7.418v0c0-2.7812 1.1055-5.4609 3.0781-7.4219 1.9609-1.9727 4.6367-3.0742 7.418-3.0742h136.45c5.8008 0 10.504-4.7031 10.504-10.496 0-5.7969-4.7031-10.496-10.504-10.496z"/> <path d="m609.92 400c0 2.7812-1.1055 5.457-3.0742 7.418-1.9609 1.9727-4.6406 3.0781-7.418 3.0781h-139.8c-5.8008 0-10.496 4.6992-10.496 10.496 0 5.793 4.6953 10.496 10.496 10.496h139.8c8.3477 0 16.359-3.3203 22.262-9.2266 5.9062-5.8984 9.2227-13.91 9.2227-22.262 0-8.3555-3.3164-16.363-9.2227-22.262-5.9023-5.9102-13.914-9.2266-22.262-9.2266h-137.05c-5.793 0-10.496 4.6992-10.496 10.496 0 5.793 4.7031 10.496 10.496 10.496h137.05c2.7773 0 5.457 1.1016 7.418 3.0742 1.9688 1.9609 3.0742 4.6406 3.0742 7.4219z"/> <path d="m389.5 389.5c0 5.7969-4.6992 10.496-10.496 10.496-5.7969 0-10.496-4.6992-10.496-10.496s4.6992-10.496 10.496-10.496c5.7969 0 10.496 4.6992 10.496 10.496"/> <path d="m431.49 389.5c0 5.7969-4.6992 10.496-10.496 10.496-5.7969 0-10.496-4.6992-10.496-10.496s4.6992-10.496 10.496-10.496c5.7969 0 10.496 4.6992 10.496 10.496"/> <path d="m452.48 567.93c0 5.7969-4.6992 10.496-10.496 10.496s-10.496-4.6992-10.496-10.496 4.6992-10.496 10.496-10.496 10.496 4.6992 10.496 10.496"/> <path d="m211.07 494.46c0 5.7969-4.6992 10.496-10.496 10.496s-10.496-4.6992-10.496-10.496c0-5.7969 4.6992-10.496 10.496-10.496s10.496 4.6992 10.496 10.496"/> <path d="m358.02 525.95c0 5.7969-4.6992 10.496-10.496 10.496s-10.496-4.6992-10.496-10.496 4.6992-10.496 10.496-10.496 10.496 4.6992 10.496 10.496"/> <path d="m190.08 536.45v62.977c0 17.395 14.098 31.488 31.488 31.488h20.992c5.793 0 10.496-4.6992 10.496-10.496v-199.42c0-5.7969-4.7031-10.496-10.496-10.496-5.793 0-10.496 4.6992-10.496 10.496v188.93h-10.496c-5.793 0-10.496-4.6992-10.496-10.496v-62.977c0-5.793-4.7031-10.496-10.496-10.496s-10.496 4.7031-10.496 10.496z"/> <path d="m242.56 389.5c5.793 0 10.496-4.6992 10.496-10.496v-83.969c0-5.8008-4.7031-10.496-10.496-10.496h-20.992c-17.391 0-31.488 14.098-31.488 31.488v62.977c0 5.7969 4.7031 10.496 10.496 10.496zm-10.496-20.992h-20.992v-52.48c0-5.8008 4.7031-10.496 10.496-10.496h10.496z"/> <path d="m609.92 420.99c0-5.7969-4.6992-10.496-10.496-10.496h-41.984c-5.793 0-10.496 4.6992-10.496 10.496v199.42c0 5.7969 4.7031 10.496 10.496 10.496h20.992c17.395 0 31.488-14.094 31.488-31.488zm-20.992 10.496v167.93c0 5.7969-4.6992 10.496-10.496 10.496h-10.496v-178.43z"/> <path d="m599.42 389.5c5.7969 0 10.496-4.6992 10.496-10.496v-62.977c0-17.391-14.094-31.488-31.488-31.488h-20.992c-5.793 0-10.496 4.6953-10.496 10.496v83.969c0 5.7969 4.7031 10.496 10.496 10.496zm-10.496-20.992h-20.992v-62.977h10.496c5.7969 0 10.496 4.6953 10.496 10.496z"/> <path d="m237.31 630.91h325.38c5.7969 0 10.492-4.6992 10.492-10.496 0-5.793-4.6953-10.496-10.492-10.496h-325.38c-5.7969 0-10.492 4.7031-10.492 10.496 0 5.7969 4.6953 10.496 10.492 10.496z"/> <path d="m242.56 347.52h62.977c5.793 0 10.496-4.7031 10.496-10.496 0-5.7969-4.7031-10.496-10.496-10.496h-62.977c-5.793 0-10.496 4.6992-10.496 10.496 0 5.793 4.7031 10.496 10.496 10.496z"/> <path d="m494.46 347.52h62.973c5.7969 0 10.5-4.7031 10.5-10.496 0-5.7969-4.7031-10.496-10.5-10.496h-62.973c-5.7969 0-10.5 4.6992-10.5 10.496 0 5.793 4.7031 10.496 10.5 10.496z"/> <path d="m242.56 305.54h314.88c5.7891 0 10.492-4.7031 10.492-10.496 0-5.793-4.7031-10.496-10.492-10.496h-314.88c-5.793 0-10.492 4.7031-10.492 10.496 0 5.793 4.6992 10.496 10.492 10.496z"/> <path d="m284.54 578.43h115.46c5.7891 0 10.496-4.6992 10.496-10.496 0-5.793-4.707-10.496-10.496-10.496h-115.46c-5.7891 0-10.5 4.7031-10.5 10.496 0 5.7969 4.7109 10.496 10.5 10.496z"/> <path d="m504.96 515.45h-115.45c-5.7891 0-10.5 4.7031-10.5 10.496 0 5.7969 4.7109 10.496 10.5 10.496h115.45c5.793 0 10.5-4.6992 10.5-10.496 0-5.793-4.707-10.496-10.5-10.496z"/> <path d="m483.96 578.43h20.992c5.793 0 10.496-4.6992 10.496-10.496 0-5.793-4.7031-10.496-10.496-10.496h-20.992c-5.7891 0-10.496 4.7031-10.496 10.496 0 5.7969 4.707 10.496 10.496 10.496z"/> <path d="m211.07 452.48v-31.488c0-5.7969-4.7031-10.496-10.496-10.496s-10.496 4.6992-10.496 10.496v31.488c0 5.793 4.7031 10.496 10.496 10.496s10.496-4.7031 10.496-10.496z"/> <path d="m305.54 515.45h-20.992c-5.793 0-10.496 4.7031-10.496 10.496 0 5.7969 4.7031 10.496 10.496 10.496h20.992c5.793 0 10.496-4.6992 10.496-10.496 0-5.793-4.7031-10.496-10.496-10.496z"/> <path d="m241.59 299.44 27.465-59.516 64.438 23.02c5.4453 1.9414 11.461-0.90234 13.414-6.3594 1.9414-5.4492-0.90234-11.465-6.3594-13.414l-73.473-26.242c-5.1133-1.8242-10.781 0.55859-13.059 5.4922l-31.488 68.223c-2.4258 5.2578-0.125 11.504 5.1328 13.93 5.2578 2.4219 11.504 0.125 13.93-5.1328z"/> <path d="m577.46 290.64-31.488-68.223c-2.2773-4.9336-7.9453-7.3164-13.055-5.4922l-73.473 26.242c-5.4609 1.9492-8.3047 7.9648-6.3633 13.414 1.9531 5.457 7.9688 8.3008 13.414 6.3594l64.438-23.02s27.469 59.516 27.469 59.516c2.4219 5.2578 8.668 7.5547 13.926 5.1328 5.2578-2.4258 7.5586-8.6719 5.1328-13.93z"/> <path d="m323.45 249.98 26.137-26.137 45.723 22.852c5.1719 2.5898 11.492 0.49219 14.074-4.6953 2.5898-5.1719 0.49219-11.492-4.6914-14.074l-52.48-26.238c-4.043-2.0273-8.9219-1.2305-12.113 1.9609l-31.488 31.488c-4.0938 4.0938-4.0938 10.75 0 14.844 4.0938 4.0898 10.75 4.0898 14.84 0z"/> <path d="m385.3 235.21 56.824-42.625 67.227 48.02c4.7148 3.3711 11.273 2.2656 14.645-2.4453 3.3672-4.7109 2.2656-11.273-2.4453-14.641l-73.473-52.48c-3.7148-2.6562-8.7344-2.6055-12.398 0.14453l-62.977 47.234c-4.6367 3.4727-5.5703 10.055-2.0977 14.695 3.4727 4.6367 10.055 5.5703 14.695 2.0977z"/> <path d="m347.52 440.9v11.578c0 17.391 14.094 31.484 31.488 31.484h41.984c17.391 0 31.488-14.094 31.488-31.484v-11.578c12.98-13.246 20.992-31.395 20.992-51.398 0-40.547-32.93-73.473-73.473-73.473-40.547 0-73.473 32.926-73.473 73.473 0 20.004 8.0078 38.152 20.992 51.398zm20.992-4.4727c0-2.9922-1.2695-5.8359-3.4961-7.8203-10.738-9.6133-17.496-23.574-17.496-39.105 0-28.969 23.512-52.48 52.48-52.48s52.48 23.512 52.48 52.48c0 15.531-6.7617 29.492-17.5 39.105-2.2227 1.9844-3.4922 4.8281-3.4922 7.8203v16.051c0 5.793-4.7031 10.496-10.496 10.496h-41.984c-5.7969 0-10.496-4.7031-10.496-10.496v-16.051z"/> <path d="m410.5 473.47v-31.488c0-5.7969-4.7031-10.496-10.496-10.496-5.7969 0-10.496 4.6992-10.496 10.496v31.488c0 5.793 4.6992 10.496 10.496 10.496 5.793 0 10.496-4.7031 10.496-10.496z"/> </g> </g>
</svg>